<mxfile host="app.diagrams.net" modified="2024-02-19T16:32:57.202Z" agent="Mozilla/5.0 (Windows NT 10.0; Win64; x64; rv:122.0) Gecko/20100101 Firefox/122.0" etag="XmDQ8b2CCj2q68Rkm98-" version="23.1.5" type="device">
  <diagram name="Page-1" id="HOamRKEhcgr0epngXT2c">
    <mxGraphModel dx="1434" dy="764" grid="1" gridSize="10" guides="1" tooltips="1" connect="1" arrows="1" fold="1" page="1" pageScale="1" pageWidth="850" pageHeight="1100" math="0" shadow="0">
      <root>
        <mxCell id="0" />
        <mxCell id="1" parent="0" />
        <mxCell id="oRODH1_oDBL0VGA5POtY-34" value="" style="edgeStyle=orthogonalEdgeStyle;rounded=0;orthogonalLoop=1;jettySize=auto;html=1;" edge="1" parent="1" source="oRODH1_oDBL0VGA5POtY-1" target="oRODH1_oDBL0VGA5POtY-33">
          <mxGeometry relative="1" as="geometry" />
        </mxCell>
        <mxCell id="oRODH1_oDBL0VGA5POtY-1" value="&lt;h1&gt;&lt;font style=&quot;font-size: 18px;&quot;&gt;start&lt;/font&gt;&lt;/h1&gt;" style="ellipse;whiteSpace=wrap;html=1;" vertex="1" parent="1">
          <mxGeometry x="245" y="50" width="230" height="60" as="geometry" />
        </mxCell>
        <mxCell id="oRODH1_oDBL0VGA5POtY-2" style="edgeStyle=orthogonalEdgeStyle;rounded=0;orthogonalLoop=1;jettySize=auto;html=1;exitX=0.5;exitY=1;exitDx=0;exitDy=0;" edge="1" parent="1" source="oRODH1_oDBL0VGA5POtY-1" target="oRODH1_oDBL0VGA5POtY-1">
          <mxGeometry relative="1" as="geometry" />
        </mxCell>
        <mxCell id="oRODH1_oDBL0VGA5POtY-36" value="" style="edgeStyle=orthogonalEdgeStyle;rounded=0;orthogonalLoop=1;jettySize=auto;html=1;" edge="1" parent="1" source="oRODH1_oDBL0VGA5POtY-3" target="oRODH1_oDBL0VGA5POtY-25">
          <mxGeometry relative="1" as="geometry" />
        </mxCell>
        <mxCell id="oRODH1_oDBL0VGA5POtY-3" value="secoundbaselen" style="shape=parallelogram;perimeter=parallelogramPerimeter;whiteSpace=wrap;html=1;fixedSize=1;" vertex="1" parent="1">
          <mxGeometry x="240" y="270" width="240" height="60" as="geometry" />
        </mxCell>
        <mxCell id="oRODH1_oDBL0VGA5POtY-6" value="Input" style="text;html=1;align=center;verticalAlign=middle;whiteSpace=wrap;rounded=0;" vertex="1" parent="1">
          <mxGeometry x="110" y="185" width="60" height="30" as="geometry" />
        </mxCell>
        <mxCell id="oRODH1_oDBL0VGA5POtY-29" value="" style="edgeStyle=orthogonalEdgeStyle;rounded=0;orthogonalLoop=1;jettySize=auto;html=1;" edge="1" parent="1" source="oRODH1_oDBL0VGA5POtY-10" target="oRODH1_oDBL0VGA5POtY-16">
          <mxGeometry relative="1" as="geometry" />
        </mxCell>
        <mxCell id="oRODH1_oDBL0VGA5POtY-10" value="A = firstbaselen * secoundbaselen * hight" style="rounded=0;whiteSpace=wrap;html=1;" vertex="1" parent="1">
          <mxGeometry x="200" y="500" width="320" height="70" as="geometry" />
        </mxCell>
        <mxCell id="oRODH1_oDBL0VGA5POtY-11" value="&lt;div&gt;Process&lt;/div&gt;" style="text;html=1;align=center;verticalAlign=middle;whiteSpace=wrap;rounded=0;" vertex="1" parent="1">
          <mxGeometry x="110" y="520" width="60" height="30" as="geometry" />
        </mxCell>
        <mxCell id="oRODH1_oDBL0VGA5POtY-15" value="&lt;h1&gt;&lt;font style=&quot;font-size: 18px;&quot;&gt;End&lt;/font&gt;&lt;/h1&gt;" style="ellipse;whiteSpace=wrap;html=1;" vertex="1" parent="1">
          <mxGeometry x="245" y="740" width="230" height="60" as="geometry" />
        </mxCell>
        <mxCell id="oRODH1_oDBL0VGA5POtY-24" value="" style="edgeStyle=orthogonalEdgeStyle;rounded=0;orthogonalLoop=1;jettySize=auto;html=1;" edge="1" parent="1" source="oRODH1_oDBL0VGA5POtY-16" target="oRODH1_oDBL0VGA5POtY-15">
          <mxGeometry relative="1" as="geometry" />
        </mxCell>
        <mxCell id="oRODH1_oDBL0VGA5POtY-16" value="A" style="shape=parallelogram;perimeter=parallelogramPerimeter;whiteSpace=wrap;html=1;fixedSize=1;" vertex="1" parent="1">
          <mxGeometry x="240" y="620" width="240" height="60" as="geometry" />
        </mxCell>
        <mxCell id="oRODH1_oDBL0VGA5POtY-18" value="Output" style="text;html=1;align=center;verticalAlign=middle;whiteSpace=wrap;rounded=0;" vertex="1" parent="1">
          <mxGeometry x="110" y="635" width="60" height="30" as="geometry" />
        </mxCell>
        <mxCell id="oRODH1_oDBL0VGA5POtY-37" value="" style="edgeStyle=orthogonalEdgeStyle;rounded=0;orthogonalLoop=1;jettySize=auto;html=1;" edge="1" parent="1" source="oRODH1_oDBL0VGA5POtY-25" target="oRODH1_oDBL0VGA5POtY-10">
          <mxGeometry relative="1" as="geometry" />
        </mxCell>
        <mxCell id="oRODH1_oDBL0VGA5POtY-25" value="hight" style="shape=parallelogram;perimeter=parallelogramPerimeter;whiteSpace=wrap;html=1;fixedSize=1;" vertex="1" parent="1">
          <mxGeometry x="240" y="380" width="240" height="60" as="geometry" />
        </mxCell>
        <mxCell id="oRODH1_oDBL0VGA5POtY-26" value="Input" style="text;html=1;align=center;verticalAlign=middle;whiteSpace=wrap;rounded=0;" vertex="1" parent="1">
          <mxGeometry x="110" y="400" width="60" height="30" as="geometry" />
        </mxCell>
        <mxCell id="oRODH1_oDBL0VGA5POtY-35" value="" style="edgeStyle=orthogonalEdgeStyle;rounded=0;orthogonalLoop=1;jettySize=auto;html=1;" edge="1" parent="1" source="oRODH1_oDBL0VGA5POtY-33" target="oRODH1_oDBL0VGA5POtY-3">
          <mxGeometry relative="1" as="geometry" />
        </mxCell>
        <mxCell id="oRODH1_oDBL0VGA5POtY-33" value="firstbaselen" style="shape=parallelogram;perimeter=parallelogramPerimeter;whiteSpace=wrap;html=1;fixedSize=1;" vertex="1" parent="1">
          <mxGeometry x="240" y="170" width="240" height="60" as="geometry" />
        </mxCell>
        <mxCell id="oRODH1_oDBL0VGA5POtY-38" value="Input" style="text;html=1;align=center;verticalAlign=middle;whiteSpace=wrap;rounded=0;" vertex="1" parent="1">
          <mxGeometry x="110" y="285" width="60" height="30" as="geometry" />
        </mxCell>
      </root>
    </mxGraphModel>
  </diagram>
</mxfile>
